<?xml version="1.0" standalone="no"?>
<!DOCTYPE svg PUBLIC "-//W3C//DTD SVG 20010904//EN"
 "http://www.w3.org/TR/2001/REC-SVG-20010904/DTD/svg10.dtd">
<svg version="1.0" xmlns="http://www.w3.org/2000/svg"
 width="200.000000pt" height="200.000000pt" viewBox="0 0 200.000000 200.000000"
 preserveAspectRatio="xMidYMid meet">

<g transform="translate(0.000000,200.000000) scale(0.100000,-0.100000)"
fill="#000000" stroke="none">
<path d="M805 1894 c-326 -72 -593 -324 -687 -649 -20 -69 -23 -102 -23 -245
0 -143 3 -176 23 -245 89 -306 331 -548 637 -637 69 -20 102 -23 245 -23 143
0 176 3 245 23 307 89 548 330 637 637 20 69 23 102 23 245 0 143 -3 176 -23
245 -88 304 -330 547 -632 635 -101 30 -341 37 -445 14z m-89 -420 c26 -9 64
-26 83 -38 28 -18 43 -21 71 -15 73 16 187 19 255 7 70 -13 70 -13 130 19 33
17 77 34 97 38 35 7 38 5 49 -21 6 -16 9 -60 8 -99 -3 -62 0 -76 26 -119 24
-41 30 -63 33 -131 10 -193 -73 -312 -246 -352 l-69 -17 18 -30 c14 -25 18
-59 21 -178 l3 -146 -79 -12 c-79 -11 -166 -7 -238 11 l-38 10 0 73 0 74 -67
-1 c-94 -1 -139 24 -178 95 -15 29 -46 70 -68 90 -40 38 -42 58 -4 58 34 0 83
-35 113 -80 33 -49 69 -70 121 -70 55 0 83 10 83 29 0 9 9 30 19 48 l20 31
-42 8 c-101 17 -179 60 -220 123 -71 107 -76 287 -12 385 12 19 18 50 19 113
2 122 6 126 92 97z"/>
</g>
</svg>
