<?xml version="1.0" standalone="no"?>
<!DOCTYPE svg PUBLIC "-//W3C//DTD SVG 20010904//EN"
 "http://www.w3.org/TR/2001/REC-SVG-20010904/DTD/svg10.dtd">
<svg version="1.0" xmlns="http://www.w3.org/2000/svg"
 width="200.000000pt" height="200.000000pt" viewBox="0 0 200.000000 200.000000"
 preserveAspectRatio="xMidYMid meet">

<g transform="translate(0.000000,200.000000) scale(0.100000,-0.100000)"
fill="#000000" stroke="none">
<path d="M700 1700 c-224 -19 -349 -121 -390 -315 -13 -60 -16 -627 -4 -647 3
-5 15 -6 27 -2 12 4 35 8 52 9 l30 2 5 309 c5 298 6 311 29 362 30 66 95 125
158 143 37 11 129 14 393 14 406 0 418 -2 496 -79 77 -78 79 -89 79 -501 0
-402 -3 -420 -78 -492 -51 -49 -70 -60 -136 -74 l-51 -11 43 -49 c25 -30 50
-49 63 -49 36 0 141 59 178 100 44 49 72 103 93 183 15 52 17 114 17 392 0
354 -5 408 -51 498 -50 100 -145 171 -263 197 -67 14 -555 21 -690 10z"/>
<path d="M1327 1440 c-33 -26 -41 -63 -23 -99 30 -56 103 -62 140 -9 54 77
-42 167 -117 108z"/>
<path d="M891 1346 c-110 -36 -215 -148 -241 -257 -19 -78 -8 -168 29 -244 37
-76 76 -111 131 -120 22 -4 42 -11 46 -16 3 -5 14 -9 25 -9 10 0 19 -4 19 -9
0 -5 9 -7 20 -4 11 3 20 1 20 -5 0 -15 57 -32 109 -32 100 0 233 98 284 208
18 38 22 66 22 142 0 84 -3 102 -28 152 -36 73 -101 139 -174 174 -68 34 -191
43 -262 20z m217 -135 c82 -42 126 -117 126 -211 0 -202 -232 -313 -384 -183
-60 52 -84 104 -84 183 0 112 62 195 174 231 37 12 126 1 168 -20z"/>
</g>
</svg>
